<svg xmlns="http://www.w3.org/2000/svg" viewBox="0 0 151.4 55.61"><defs><style>.cls-1{fill:#644930;}</style></defs><title>Ativo 1</title><g id="Camada_2" data-name="Camada 2"><g id="Camada_1-2" data-name="Camada 1"><path class="cls-1" d="M57.15,5.25c.09,1.15-2.65,4.16-2.65,4.16,5.56-.79,8.23-3.8,8-5.88S59.28.7,57.13.7C50.95.7,44.7,4.91,45,8.28A1.73,1.73,0,0,0,46,9.77s1.34.57.51.57a3.86,3.86,0,0,1-3.83-3.76C42.3,2.48,50.93,0,56.74,0c3.69,0,8.63.9,9,4.37s-5,5.34-5,5.34l-1.27.49a22.68,22.68,0,0,1-6.55.94s-4.61,4.66-4.61,5.76c0,.54.12.86-.41.86s-1.27-.77-1.27-2.34c0-2.73,8.53-10.18,8.4-11.53,0-.52,2,.18,2.17,1.37"/><path class="cls-1" d="M65.73,15.4a2.82,2.82,0,0,1-.25.23l-.32.29a7.83,7.83,0,0,1-3.74,1.83.11.11,0,0,1-.07,0,.21.21,0,0,0-.11,0H61a2.2,2.2,0,0,1-2.47-2.27c0-3.22,4.43-6.69,6.94-6.69a3.45,3.45,0,0,1,2.79,1.42c.09.12-.09.38-1.13.38-3.83,0-7.75,6.4-5.74,6.4,1.36,0,3.88-2.12,3.88-2.12a2.84,2.84,0,0,1-.21-1.1c0-1.46,2.28-2.1,2.28-.59,0,.32-.41.9-1.15,1.65a1.06,1.06,0,0,0,.44.13c1.11,0,2.17-1.35,4-3.54.32-.39,1-.2.53.38s-2.67,3.8-4.64,3.8a1.69,1.69,0,0,1-.83-.23"/><path class="cls-1" d="M73.76,14.79s-2.74,3-4.15,3a1.7,1.7,0,0,1-1.89-1.92c.12-1.26,4.17-5.25,4.34-6.94,0-.41,2.15.22,2,1.66s-5.56,6.48-4,6.48c.58,0,7.61-6.08,7.8-8.15,0-.41,2,.4,1.89,1.85s-5.37,6.32-4,6.32c.69,0,4.5-3.17,6.55-5.58.32-.38,1-.2.53.38s-5.54,5.92-7.63,5.92a1.85,1.85,0,0,1-1.41-3"/><path class="cls-1" d="M91.63,11.77c-.39.47-1.62,2.14-5.14,2.66v.13A3.21,3.21,0,0,1,83,17.79c-.53,0-2.26-.39-2.26-1.56,0-1.53,3.6-2.07,3.6-2.07a10.22,10.22,0,0,0,.07-3.92,1.17,1.17,0,0,1,0-.25c-.46.59-1.06,1.33-1.68,2-.44.47-1,.09-.6-.32a15.67,15.67,0,0,0,2.56-3.58c.14-.43.46-1.33.88-1.08s2.05,1.13,2.05,2.16-1,1-1.11,4.66a7.26,7.26,0,0,0,4.59-2.43c.35-.39,1-.21.55.38m-7.31,3s-2.81.52-2.81,1.53c0,.79,2.05.83,2.81-1.53"/><path class="cls-1" d="M97.62,10.72c-2.7,0-8.83,6.12-7.17,6.12.55,0,5.33-4.12,5.1-4.44s1.64-.05,1.64,1.26-2.17,3.2-1.43,3.2,4.17-3,6.2-5.36c.35-.4,1-.22.55.38s-5.33,5.92-7.43,5.92a2.23,2.23,0,0,1-1.87-1.56,2.94,2.94,0,0,1,.39-1.1s-2.9,2.66-3.76,2.66a2.31,2.31,0,0,1-2.17-2.1c0-2.09,5.6-6.87,8.19-6.87,1.36,0,2.26,1.91,1.75,1.91"/><path class="cls-1" d="M114.16,11.5c.35-.4,1-.22.55.38s-5.58,5.92-7.68,5.92a2,2,0,0,1-2.12-2.32s-2.31,2.32-3.3,2.32a2.31,2.31,0,0,1-2.44-2.23c0-2.48,5.53-6.69,7.75-6.69A2.22,2.22,0,0,1,109,9.93s5.05-6.28,5.05-7.3c0-.58,2-.52,2,1.8,0,2.07-9.94,12.43-8.32,12.43.69,0,4.41-3,6.43-5.36m-5.95-1.15c-1.13,0-6.39,4.35-6.39,6.42a.18.18,0,0,0,.18.14c1.36,0,7.68-6.57,6.2-6.57"/><path class="cls-1" d="M121,10.72c-2.7,0-8.83,6.12-7.17,6.12.55,0,5.33-4.12,5.1-4.44s1.64-.05,1.64,1.26-2.17,3.2-1.43,3.2,4.17-3,6.2-5.36c.35-.4,1-.22.55.38s-5.33,5.92-7.43,5.92a2.23,2.23,0,0,1-1.87-1.56,2.93,2.93,0,0,1,.39-1.1s-2.91,2.66-3.76,2.66a2.31,2.31,0,0,1-2.17-2.1c0-2.09,5.6-6.87,8.19-6.87,1.36,0,2.26,1.91,1.75,1.91"/><path class="cls-1" d="M18.72,31a55.45,55.45,0,0,0-7.69.79c-.78,0-.82-3.23-.8-4.84s5.25-4.79,19.89-4.76a6.36,6.36,0,0,0,.81-3.47c-.14-1-1.32-1.37.05-1.5s4.53,1.28,4.81,3.3S34,24.57,33,26.4s1.86,2.72-.4,2.93c-1,.11-2.28-1.14-2.87-1.75-12-.09-13.13.8-13.13.8s16.29.93,16.2,10.83C32.73,46.89,22,55.71,11.36,55.61A11.13,11.13,0,0,1,0,45.06c0-3.74,6.12-9.76,14.39-9.68s9.52,5.41,9.51,6.45-1.24,1.71-1.23,1.28-1.29-3.61-9.54-3.69S1.72,43.4,1.7,45.07s2.64,6,10.33,6.09c10.2.1,19-7.51,19.07-12.22,0-5.15-8.61-7.91-12.38-7.95"/><path class="cls-1" d="M47.56,37.42c-4.32,0-14.25,9.65-11.59,9.68.89,0,8.6-6.51,8.23-7s2.63-.06,2.61,2-3.52,5.09-2.34,5.1,6.73-4.69,10-8.48c.56-.63,1.67-.33.88.61s-8.62,9.39-12,9.36a3.57,3.57,0,0,1-3-2.53,4.7,4.7,0,0,1,.64-1.75s-4.7,4.22-6.06,4.2a3.7,3.7,0,0,1-3.44-3.4c0-3.34,9.08-10.91,13.22-10.87,2.18,0,3.59,3.09,2.78,3.08"/><path class="cls-1" d="M58.24,45.17c0-2.42,5.55-8.12,5.55-8.12-1.22,0-11.88,9.47-11.89,10.83,0,2.13-2.51,0-2.49-2.3s7.4-8.25,7.42-11.13c0-1,2.7.11,2.67,3a3.31,3.31,0,0,1-1.28,2.35s6.78-5.26,8-5.25,2.06,1.49,2,2.9-8.74,9.93-7,10c2.22,0,7.66-4.88,11-8.68.52-.63,1.63-.33.84.61s-8.7,9.56-12.36,9.53c-1.44,0-2.5-1.52-2.48-3.68"/><path class="cls-1" d="M92.13,33.46c0-.84-2.3-2.55-6.41-2.59-.78,0-1.55,0-2.29,0C78.83,37.25,70,47.44,72.67,47.47c1.11,0,7.25-4.68,10.58-8.48.52-.63,1.67-.33.85.61S74.94,49,71.55,49c-2.77,0-3.2-2-3.18-3.37,0-2,5.4-8.76,9.52-14.5-1.29,0-2.66,0-4.14,0-4.1,0-5.61-1.32-6.15-2.48s.16-1.21.78-.77a10.26,10.26,0,0,0,5.46,1.4c2.22,0,4.18-.08,5.47-.18,1.87-2.69,3.19-4.89,3.2-5.84s3.58.21,3.56,3.11A6.84,6.84,0,0,1,84.74,29h1.07c4.62,0,6.71,2,7.25,3.55.36,1-.93.88-.93.88"/><path class="cls-1" d="M94,37.86c-4.32,0-14.25,9.65-11.59,9.68.89,0,8.6-6.51,8.23-7s2.63-.06,2.61,2-3.52,5.09-2.34,5.1,6.73-4.69,10-8.48c.56-.63,1.67-.33.88.61s-8.63,9.39-12,9.36a3.56,3.56,0,0,1-3-2.53,4.72,4.72,0,0,1,.65-1.75s-4.7,4.22-6.06,4.2A3.7,3.7,0,0,1,78,45.65c0-3.34,9.08-10.91,13.22-10.87,2.18,0,3.59,3.09,2.78,3.08"/><path class="cls-1" d="M150.36,25.95c-.41,2.19-5.14,3.3-9,3.25a29.44,29.44,0,0,1-6.17-.79c-.38-.09-.76-.24-1.1-.33-.83,1.38-2.43,3.89-3.44,5.34l-.1.15,1,.13a19.38,19.38,0,0,0,4.92.38,2.77,2.77,0,0,0,.84-.14,2.76,2.76,0,0,1,.58-.13c.26,0,.37,0,.49.14s.52,1-2.44,2.19a9,9,0,0,1-2,.34c-2.4.17-1.66.12-4.69-.25l-.6,0-.1.09c-3.78,5.34-7.82,11.74-7.6,13.34.14.88-2.59,0-3-2.56-.17-1.37.24-2.35,1.91-5.09l2.75-4.12a8.52,8.52,0,0,1,.81-1.12l.1-.15h-.33s-.11,0-.33-.41c-.51-.92.82-2.11,2.37-2.71a3.93,3.93,0,0,1,.73-.19l0,0,.07-.06c.34-.43.55-.62.93-1a53.27,53.27,0,0,0,3.49-5.29c-.53-.22-14.54-4.56-21.88-4.05-5.53.38-8.72,2.39-8.73,5.51,0,1.7,1.41,2.79,2.57,3.43a12.61,12.61,0,0,0,6.17,1.39c2.91-.2,4.79-1.46,4.7-3.21a1.58,1.58,0,0,0-.89-1.64,5.15,5.15,0,0,0-2.55-.43h0c.17-.79,1.47-1.2,2.69-1.28a8.7,8.7,0,0,1,4.36.82,2.21,2.21,0,0,1,1.35,1.87c0,2.77-4.11,6-10.15,6.39a13.23,13.23,0,0,1-7-1.5C98.83,32.86,97.44,31,97.45,29c0-4,4.21-8.22,12.25-8.78,6.56-.45,19.23,2.74,22.86,3.75a17.74,17.74,0,0,1,10-2.62,10.61,10.61,0,0,1,5.7,1.51c1.43.88,2.21,2,2.1,3.06m-4.13-2.89a11,11,0,0,0-2.88-.35,12.82,12.82,0,0,0-6.92,2.24l-.07.12.15,0c2.26.56,4.46,1.34,7.27,1.14,2.29-.16,4.55-.63,4.8-1.37s-.61-1.37-2.35-1.83"/><path class="cls-1" d="M151.19,39.72c-.66.94-8.42,9.43-12.8,9.74a3.28,3.28,0,0,1-3.54-3.1c-.34-4.86,7.54-10.64,9.82-10.8.9-.06,2.45.32,2.62,2.87s-6.83,7.46-8.62,7.59c0,0-1.15,1.89.64,1.76,2.31-.16,8.23-4.78,11-8.56.47-.63,1.53-.4.87.51m-12,4.72c4.12-2.25,5.9-5.55,4.87-5.48s-4.87,5.48-4.87,5.48m5-14.33c-.07-1,3,.14,3,.87.07,1-3.55,4.14-4.36,4.2-1.54.1,1.41-3.72,1.32-5.06"/></g></g></svg>