<svg xmlns="http://www.w3.org/2000/svg" viewBox="0 0 94.45 73.3"><defs><style>.cls-1{fill:#6e5334;stroke:#fff9e8;stroke-miterlimit:10;stroke-width:1.42px;fill-rule:evenodd;}</style></defs><title>Ativo 11</title><g id="Camada_2" data-name="Camada 2"><g id="Camada_1-2" data-name="Camada 1"><path class="cls-1" d="M.71,10.06a26.32,26.32,0,0,1,1.5-4A10.37,10.37,0,0,1,10.85.73c.34,0,.69,0,1,0H82.51a10.73,10.73,0,0,1,9.27,4.67,9.52,9.52,0,0,1,1.88,5.46c.05,5.86.17,11.74,0,17.6-.15,4.17-2.39,7.23-6.18,9.09a10.75,10.75,0,0,1-4.83,1q-35.38,0-70.77,0a10.77,10.77,0,0,1-11-8.76,5.28,5.28,0,0,0-.18-.55ZM47.17,33.58H82.44c3.78,0,6.28-2.37,6.31-6.07,0-5.27,0-10.54,0-15.81A6,6,0,0,0,87.53,8a6,6,0,0,0-5.13-2.31H12A7.74,7.74,0,0,0,10,5.88a5.75,5.75,0,0,0-4.32,5.77c0,5.3,0,10.59,0,15.89a5.91,5.91,0,0,0,6.34,6Z"/><path class="cls-1" d="M70,69.86c-.09-.92.54-1.45,1.23-2a11.48,11.48,0,0,0,1.91-1.61c1.31-1.55,1.16-3.32.42-5-1-2.22-2.14-4.34-3-6.58-2.15-5.29,0-9.45,4.78-11.73a2.42,2.42,0,0,1,3.21,1.3,2.13,2.13,0,0,1-1,3.06C76.26,48,75,48.9,74.9,50.53a7.5,7.5,0,0,0,.49,3.09c.67,1.69,1.58,3.29,2.39,4.92a11.26,11.26,0,0,1,1.3,6.66A8.78,8.78,0,0,1,75.51,71c-.5.4-1,.75-1.58,1.1a2.21,2.21,0,0,1-2.44.25A2.61,2.61,0,0,1,70,69.86Z"/><path class="cls-1" d="M43.62,70.19a2.17,2.17,0,0,1,.85-2,20.58,20.58,0,0,0,1.72-1.27,4,4,0,0,0,1.32-4.55A50.75,50.75,0,0,0,45.17,57a15.09,15.09,0,0,1-1.84-5.82,7.6,7.6,0,0,1,2.9-6.5,15.13,15.13,0,0,1,2.45-1.64,2.48,2.48,0,0,1,3.39,1,2.28,2.28,0,0,1-1,3.32,5.25,5.25,0,0,0-2.3,2.22,4.93,4.93,0,0,0,.34,4.35c.85,1.89,1.86,3.71,2.71,5.6a9.31,9.31,0,0,1,.29,7.77,10.11,10.11,0,0,1-3.9,4.35c-.23.15-.47.27-.7.42a2.14,2.14,0,0,1-2.43.24A2.51,2.51,0,0,1,43.62,70.19Z"/><path class="cls-1" d="M17.19,70.23a2.37,2.37,0,0,1,1-2.17,13.27,13.27,0,0,0,2-1.62c1.49-1.66,1.24-3.57.46-5.43-.68-1.61-1.52-3.15-2.28-4.73A11.4,11.4,0,0,1,17,49.57a7.48,7.48,0,0,1,2.65-4.74A18,18,0,0,1,22.48,43a2.14,2.14,0,0,1,2.55.36,2.32,2.32,0,0,1,.88,2.58,3.84,3.84,0,0,1-1.15,1.37,21.2,21.2,0,0,0-1.9,1.51c-1.3,1.48-1.06,3.17-.33,4.8s1.65,3.21,2.36,4.86a18.43,18.43,0,0,1,1.32,4.06c.62,3.63-.85,6.45-3.72,8.63-.45.34-.94.64-1.41,1a2.21,2.21,0,0,1-2.37.27A2.67,2.67,0,0,1,17.19,70.23Z"/><path class="cls-1" d="M47.05,17.24H78.39A7.32,7.32,0,0,1,83,18.7a6.71,6.71,0,0,1,2.33,6.7,6.51,6.51,0,0,1-5.75,5c-.74.06-1.48.1-2.22.1H15.84a7.49,7.49,0,0,1-5.07-1.7,6.67,6.67,0,0,1,4.94-11.58Zm0,5H16a7,7,0,0,0-1.11.05,1.36,1.36,0,0,0-1.26,1.09A2.12,2.12,0,0,0,14,25a3.27,3.27,0,0,0,2,.64q31.06,0,62.12,0a5.29,5.29,0,0,0,1.32-.16,1.53,1.53,0,0,0,1.17-1.3,1.38,1.38,0,0,0-.7-1.58,3.84,3.84,0,0,0-1.62-.36Q62.65,22.18,47.07,22.19Z"/><path class="cls-1" d="M74.54,9.47c1.06,0,2.12,0,3.19,0a2.46,2.46,0,1,1,0,4.91c-2.17,0-4.35,0-6.52,0a2.46,2.46,0,1,1,.06-4.91c.54,0,1.09,0,1.63,0Z"/><path class="cls-1" d="M58.05,9.47c1.06,0,2.13,0,3.19,0a2.37,2.37,0,0,1,2.49,2.45,2.38,2.38,0,0,1-2.43,2.46q-3.3.06-6.59,0a2.46,2.46,0,1,1,.08-4.91C55.88,9.45,57,9.47,58.05,9.47Z"/></g></g></svg>