<svg xmlns="http://www.w3.org/2000/svg" viewBox="0 0 801.26 80.6"><defs><style>.cls-1,.cls-2{fill:#644930;}.cls-2{fill-rule:evenodd;}</style></defs><title>Ativo 1</title><g id="Camada_2" data-name="Camada 2"><g id="Camada_1-2" data-name="Camada 1"><path class="cls-1" d="M401.22,75.77c1.17,0,1.67-.33,1.67-1.33,0-1.33-.5-1.83-1.67-1.83-1,0-1.51.5-1.51,1.83,0,1,.5,1.33,1.51,1.33Zm91.87-1a22.13,22.13,0,0,0,6.34-6.16,11.55,11.55,0,0,0,2.34-7.49,10,10,0,0,0-1.17-5l-3-4.5c-1-1.33-1.84-2.83-2.67-4a7.44,7.44,0,0,1-1-4.66,5.6,5.6,0,0,1,2.17-3.33A10.52,10.52,0,0,1,500.6,38a15.25,15.25,0,0,1,5.51,0,12.88,12.88,0,0,1,5.18,2,14.74,14.74,0,0,1,6.18,7.33c1.51,3.17,1,6.16-1.17,9.66A14.48,14.48,0,0,0,514,50.62a22.32,22.32,0,0,0-4-5.33,16.81,16.81,0,0,0-5-3.16,7.12,7.12,0,0,0-5.18.67,14.17,14.17,0,0,1,9.52,5,15.38,15.38,0,0,1,3.84,11.33,15.54,15.54,0,0,1-1.67,6.33,19.72,19.72,0,0,1-4.51,5.33,17.13,17.13,0,0,1-6.35,3.66,12.85,12.85,0,0,1-7.51.33Zm-18.54,5.49A44,44,0,0,0,470,73.93a25.35,25.35,0,0,0-5.85-5.16,32.12,32.12,0,0,0-9.36-3.83,63.73,63.73,0,0,0-14-1.83c-4.51,0-8.52.5-11.69,2-3.17,1.67-6.52,3.5-10.19,5.5a5.73,5.73,0,0,0,.33-2.5,26.18,26.18,0,0,0-.5-2.66,50.37,50.37,0,0,1,11.19-6.33,36.62,36.62,0,0,1,14.2-2.84,59.58,59.58,0,0,1,17,2A38.49,38.49,0,0,1,474,64.61c-1-2.5-3.51-4.83-7.51-6.83a39.39,39.39,0,0,0-14.37-4,72,72,0,0,0-17.87.33A55.06,55.06,0,0,0,415.91,60a30.71,30.71,0,0,1,12.19-7.5A42.45,42.45,0,0,1,442,50.13a92.94,92.94,0,0,1,15,1C462,52,467,53,471.87,54c5,1.16,9.85,2.16,14.7,3a77,77,0,0,0,13.2,1.34c.83,1.83.67,4.16-.67,6.82a16.28,16.28,0,0,1-5,6.5,5.35,5.35,0,0,1-4,1.33,38,38,0,0,1-4.34-.67c-1.51-.33-3-.66-4.34-1a7.09,7.09,0,0,0-4.18.34,6.48,6.48,0,0,1,1.5,5.33c-.33,1.83-1.84,3-4.18,3.33ZM410.4,54.62a13.3,13.3,0,0,0-3.67-1.5,9.23,9.23,0,0,0-4.68-.33,57.4,57.4,0,0,0,5.35-21.32c.17-7.16-1.17-13.15-4.18-17.65a66.19,66.19,0,0,1,1.67,10.49,46.49,46.49,0,0,1-.34,10.82,42.71,42.71,0,0,1-2.67,10.32,32.79,32.79,0,0,1-5.35,8.66A30.64,30.64,0,0,0,395.2,42.8a16.76,16.76,0,0,0-5-7.83,13.77,13.77,0,0,0-7.85-3.66,18.27,18.27,0,0,0-10.69,2,10.06,10.06,0,0,1,2.67-7.66,13.38,13.38,0,0,1,7-3.5A14.73,14.73,0,0,1,390,23.48a17.53,17.53,0,0,1,7.68,6.83,5.21,5.21,0,0,0,.33-4.16c-.33-1.33-.84-2.66-1.34-4.16-.83-1.33-1.5-2.83-2.17-4.17a13.39,13.39,0,0,1-1.33-4.16,11.79,11.79,0,0,1,1.67-7.83A16.54,16.54,0,0,1,399.71,0a9,9,0,0,1,5.68,4.5c1.16,2.5,2.33,4.83,3.34,7.33a15.6,15.6,0,0,1,1,5c.17,1.83.17,3.66.17,5.16a30.9,30.9,0,0,0,.17,4.16c.17,1.33.5,2,1.17,2.16,1,.16,1.51,0,1.84-.66a10.65,10.65,0,0,0,1.67-2c.5-1,1.17-1.83,1.67-2.66a6.23,6.23,0,0,1,2.5-2.16c2.67-1.33,5.18-1.67,7.68-.67a11.28,11.28,0,0,1,6.18,5.66,35.41,35.41,0,0,0-10.52,6,34.78,34.78,0,0,0-6.85,7.33,28.38,28.38,0,0,0-3.67,8,27.41,27.41,0,0,0-1.34,7.5Zm-8.52,26A11.15,11.15,0,0,1,394,77.43a10.65,10.65,0,0,1-3.17-7.83A9.93,9.93,0,0,1,394,62.11a10.92,10.92,0,0,1,15.7,0,9.94,9.94,0,0,1,3.17,7.49,10.66,10.66,0,0,1-3.17,7.83,11.15,11.15,0,0,1-7.85,3.17Z"/><path class="cls-1" d="M311,75.27a22.2,22.2,0,0,1-6.35-6.16c-1.67-2.67-2.5-5.16-2.34-7.33a9.54,9.54,0,0,1,1.34-5.16,38.43,38.43,0,0,1,2.84-4.33A30.19,30.19,0,0,0,309.18,48a6.67,6.67,0,0,0,1-4.33A4.91,4.91,0,0,0,308,40.13a13.28,13.28,0,0,0-4.51-1.67,12.44,12.44,0,0,0-5.51.17,16.19,16.19,0,0,0-5,1.67,16.09,16.09,0,0,0-6.35,7.49c-1.5,3.16-1,6.33,1.17,9.49a18.61,18.61,0,0,1,2.34-6.16,16.91,16.91,0,0,1,4.18-5.33,11.22,11.22,0,0,1,5-3,5.46,5.46,0,0,1,5,.66,13.83,13.83,0,0,0-9.52,5,15.05,15.05,0,0,0-3.84,11,13.22,13.22,0,0,0,1.67,6.33,21,21,0,0,0,4.51,5.66,21.22,21.22,0,0,0,6.35,3.5,14.44,14.44,0,0,0,7.52.34Zm18.71,5.33a39.15,39.15,0,0,1,4.34-6,22.59,22.59,0,0,1,5.85-5.33,46.5,46.5,0,0,1,9.52-4,61.37,61.37,0,0,1,13.86-1.67c4.68-.17,8.52.5,11.69,2.16a76.15,76.15,0,0,1,10.19,5.33,10.14,10.14,0,0,1-.33-2.5c.17-1,.33-1.83.5-2.67a58.39,58.39,0,0,0-11.19-6.49A36.52,36.52,0,0,0,360,56.78a53,53,0,0,0-16.87,2.16c-5.68,1.5-10,3.67-12.86,6.16,1-2.49,3.34-4.83,7.35-6.82a42.9,42.9,0,0,1,14.37-4,73.25,73.25,0,0,1,18,.34,50.78,50.78,0,0,1,18.21,5.83A31.92,31.92,0,0,0,376,52.79a47.52,47.52,0,0,0-14-2.17,93,93,0,0,0-14.87,1c-5,.83-10,1.67-14.87,2.83-5,1-9.85,2-14.53,2.84a66,66,0,0,1-13.36,1.33c-.84,2.17-.67,4.33.67,7.16a17.42,17.42,0,0,0,5,6.49,6.4,6.4,0,0,0,4,1.33c1.5-.17,2.84-.5,4.51-.83,1.34-.33,2.84-.67,4.18-1a7.16,7.16,0,0,1,4.18.5,5.86,5.86,0,0,0-1.5,5.16c.33,1.83,1.84,2.83,4.34,3.17Z"/><path class="cls-1" d="M790.9,62.62c-1.17,0-1.84-.5-1.84-1.5a1.67,1.67,0,0,1,1.84-1.83c1,0,1.5.67,1.5,1.83a1.33,1.33,0,0,1-1.5,1.5Zm-.67,4.66a10.34,10.34,0,0,0,7.68-3.17,10.09,10.09,0,0,0,3.34-7.66,9.86,9.86,0,0,0-3.34-7.66,10.36,10.36,0,0,0-7.68-3.17,10.85,10.85,0,0,0-8,3.17,11.57,11.57,0,0,0-3,7.66,11.91,11.91,0,0,0,3,7.66,10.83,10.83,0,0,0,8,3.17Z"/><path class="cls-2" d="M514.8,67.28l275.43-4V61.12L518,56.62c1.51,3-.67,7.16-3.17,10.66Z"/><path class="cls-2" d="M286.46,67.28l-275.27-4V61.12l272.1-4.5c-1.5,3,.67,7.16,3.17,10.66Z"/><path class="cls-1" d="M10.36,62.44c1.17,0,1.84-.33,1.84-1.33a1.6,1.6,0,0,0-1.84-1.83c-1,0-1.34.5-1.34,1.83,0,1,.33,1.33,1.34,1.33Zm.84,4.83a10.86,10.86,0,0,1-7.85-3.17,10.64,10.64,0,0,1,0-15.48,10.86,10.86,0,0,1,7.85-3.17,10.75,10.75,0,0,1,7.69,3.17A10.55,10.55,0,0,1,22,56.28a10.66,10.66,0,0,1-3.17,7.83,10.75,10.75,0,0,1-7.69,3.17Z"/></g></g></svg>