<svg xmlns="http://www.w3.org/2000/svg" viewBox="0 0 89.32 77.93"><defs><style>.cls-1{fill:none;stroke:#6e5334;stroke-miterlimit:10;stroke-width:2.83px;fill-rule:evenodd;}</style></defs><title>Ativo 13</title><g id="Camada_2" data-name="Camada 2"><g id="Camada_1-2" data-name="Camada 1"><path class="cls-1" d="M1.42,32.4c.22-.93.4-1.88.66-2.8a18.19,18.19,0,0,1,27.81-9.95c.85.6,1.61,1.33,2.46,1.94a37.59,37.59,0,0,0,16.83,6.78A15.82,15.82,0,0,1,62,41.09a15.6,15.6,0,0,1-8.35,16.65,16.79,16.79,0,0,0-4.83,4.45q-2.47,3.07-4.74,6.3a18.18,18.18,0,0,1-11.84,7.67A18.8,18.8,0,0,1,10.26,62a56.66,56.66,0,0,1-.77-5.65,23.12,23.12,0,0,0-1.94-7.1,14.88,14.88,0,0,0-1.86-2.89,18.34,18.34,0,0,1-4.1-9,3.82,3.82,0,0,0-.16-.53ZM26.65,54.52A12.35,12.35,0,1,0,14.29,42.24,12.3,12.3,0,0,0,26.65,54.52Z"/><path class="cls-1" d="M87.9,21.54c-.19.69-.36,1.39-.58,2.07a15.73,15.73,0,0,1-4.6,6.87,1.52,1.52,0,0,0-.54,1.25c0,6.76,0,13.53,0,20.29a5,5,0,0,1-1.36,3.75,4.54,4.54,0,0,1-3.33,1.37c-4.4,0-8.8,0-13.21,0-.34,0-.9-.14-1-.34a1.4,1.4,0,0,1,.27-1.08c1.13-1.46,2.37-2.85,3.47-4.33a15.2,15.2,0,0,0,2.62-7.75c1.1-10.75-7.63-18.72-15.93-20.09-4.06-.67-8-1.53-11.57-3.65-2.06-1.23-3.92-2.79-5.88-4.19a.91.91,0,0,1-.27-1.31,19,19,0,0,1,7.45-8.13A31.72,31.72,0,0,1,56.94,1.7,36.12,36.12,0,0,1,75,4,22.56,22.56,0,0,1,85.4,11.82a13.58,13.58,0,0,1,2.35,5.58.9.9,0,0,0,.15.26Z"/><path class="cls-1" d="M29.79,36.68a1.91,1.91,0,0,1-2.48,1.78,5.29,5.29,0,0,0-1.73-.22,2.72,2.72,0,0,0-2.3,2.09,1.94,1.94,0,1,1-3.76-.95,6.75,6.75,0,0,1,8.75-4.72A2,2,0,0,1,29.79,36.68Z"/></g></g></svg>