<svg xmlns="http://www.w3.org/2000/svg" viewBox="0 0 52.75 74.73"><defs><style>.cls-1{fill:#6e5334;stroke:#fff9e9;stroke-miterlimit:10;}</style></defs><title>Ativo 14</title><g id="Camada_2" data-name="Camada 2"><g id="Camada_1-2" data-name="Camada 1"><path class="cls-1" d="M52.25,4A3.51,3.51,0,0,0,48.75.5H4A3.5,3.5,0,0,0,.5,4V64.28A3.51,3.51,0,0,0,4,67.79H48.75a3.51,3.51,0,0,0,3.51-3.51ZM47.87,63.4h-43V4.88h43Zm0,0"/><path class="cls-1" d="M49.61,69.85H2.9a2.19,2.19,0,0,0,0,4.38H49.61a2.19,2.19,0,1,0,0-4.38Zm0,0"/><path class="cls-1" d="M11.66,52.24a2.19,2.19,0,0,0,2.19-2.19V21a2.19,2.19,0,0,0-4.38,0v29a2.19,2.19,0,0,0,2.2,2.19Zm0,0"/></g></g></svg>