<svg xmlns="http://www.w3.org/2000/svg" viewBox="0 0 100.01 80.15"><defs><style>.cls-1{fill:#6e5334;stroke:#fff9e8;stroke-miterlimit:10;}</style></defs><title>Ativo 1</title><g id="Camada_2" data-name="Camada 2"><g id="Camada_1-2" data-name="Camada 1"><path class="cls-1" d="M73.06,6.37,27.07.66A24.25,24.25,0,0,0,24.31.5,23.85,23.85,0,0,0,.5,24.35v.49A23.87,23.87,0,0,0,12.61,45.6L19,71.31a11,11,0,0,0,10.63,8.34,11.2,11.2,0,0,0,2.66-.33l.17,0a11,11,0,0,0,8-13.28L35.84,47.44l37.22-4.62a2,2,0,0,0,1.79-2V8.39a2,2,0,0,0-1.79-2ZM36.47,67a6.88,6.88,0,0,1-5,8.34l-.18,0a6.88,6.88,0,0,1-8.33-5L17.32,47.64a23.67,23.67,0,0,0,7,1,24.37,24.37,0,0,0,2.78-.16l4.67-.58Zm34.3-28L26.6,44.47a20.15,20.15,0,0,1-2.3.13A19.77,19.77,0,0,1,4.58,24.84v-.49A19.76,19.76,0,0,1,24.31,4.58a20.48,20.48,0,0,1,2.28.13L70.77,10.2Zm0,0"/><path class="cls-1" d="M11.91,24.59A13.58,13.58,0,1,0,25.49,11,13.6,13.6,0,0,0,11.91,24.59Zm23.08,0a9.5,9.5,0,1,1-9.5-9.5,9.51,9.51,0,0,1,9.5,9.5Zm0,0"/><path class="cls-1" d="M79.77,18.15c1.19,0,1.76.64,2.84,2s2.82,3.48,6,3.48,4.82-2,6-3.48,1.65-2,2.84-2a2,2,0,1,0,0-4.08c-3.18,0-4.82,2-6,3.48s-1.65,2-2.84,2-1.76-.64-2.84-2-2.82-3.48-6-3.48a2,2,0,1,0,0,4.08Zm0,0"/><path class="cls-1" d="M97.47,26.4c-3.18,0-4.82,2-6,3.48s-1.65,2-2.84,2-1.76-.64-2.84-2-2.82-3.48-6-3.48a2,2,0,1,0,0,4.08c1.19,0,1.76.64,2.84,2s2.82,3.48,6,3.48,4.82-2,6-3.48,1.65-2,2.84-2a2,2,0,1,0,0-4.08Zm0,0"/></g></g></svg>