<svg xmlns="http://www.w3.org/2000/svg" viewBox="0 0 65.3 65.3"><defs><style>.cls-1{fill:#6e5334;}</style></defs><title>Ativo 8</title><g id="Camada_2" data-name="Camada 2"><g id="Camada_1-2" data-name="Camada 1"><path class="cls-1" d="M32.65,28.3A7.62,7.62,0,1,0,25,20.67a7.63,7.63,0,0,0,7.62,7.62Zm0-13.06a5.44,5.44,0,1,1-5.44,5.44,5.45,5.45,0,0,1,5.44-5.44Zm0,0"/><path class="cls-1" d="M32.46,59.59l16.7-24.11c6.26-8.35,5.36-22.07-1.94-29.36a20.87,20.87,0,0,0-29.51,0c-7.3,7.3-8.21,21-2,29.33ZM19.24,7.65a18.7,18.7,0,0,1,26.44,0c6.58,6.58,7.4,19,1.71,26.55L32.46,55.77l-15-21.59c-5.66-7.55-4.85-19.94,1.73-26.52Zm0,0"/><path class="cls-1" d="M45.84,46.8A1.09,1.09,0,1,0,45.58,49C57,50.31,63.12,53.94,63.12,56c0,3-11.59,7.07-30.47,7.07S2.18,59,2.18,56c0-2.1,6.09-5.73,17.53-7.08a1.09,1.09,0,1,0-.25-2.16C8,48.15,0,52,0,56c0,4.6,11.21,9.25,32.65,9.25S65.3,60.64,65.3,56c0-4.09-8-7.89-19.46-9.24Zm0,0"/></g></g></svg>