<svg xmlns="http://www.w3.org/2000/svg" viewBox="0 0 64.79 64.8"><defs><style>.cls-1{fill:#6e5334;}</style></defs><title>Ativo 9</title><g id="Camada_2" data-name="Camada 2"><g id="Camada_1-2" data-name="Camada 1"><path class="cls-1" d="M57.59,52.21V8.39a1.2,1.2,0,0,0-1.2-1.2H12.58a1.2,1.2,0,0,0-1.2,1.2V52.21a1.2,1.2,0,0,0,1.2,1.2H56.39a1.2,1.2,0,0,0,1.2-1.2ZM55.19,51H13.78V9.6H55.19Zm0,0"/><path class="cls-1" d="M46.43,63.6a1.2,1.2,0,0,0,1.2,1.2h8.76a1.2,1.2,0,0,0,1.2-1.2v-3h6a1.2,1.2,0,0,0,1.2-1.2V1.2A1.2,1.2,0,0,0,63.59,0H5.38a1.2,1.2,0,0,0-1.2,1.2V16h-3A1.2,1.2,0,0,0,0,17.16v8.76a1.2,1.2,0,0,0,1.2,1.2h3v6.36h-3A1.2,1.2,0,0,0,0,34.68v8.76a1.2,1.2,0,0,0,1.2,1.2h3V59.4a1.2,1.2,0,0,0,1.2,1.2h6v3a1.2,1.2,0,0,0,1.2,1.2h8.76a1.2,1.2,0,0,0,1.2-1.2v-3H46.43ZM2.4,24.72V18.36H4.18v6.36Zm0,17.52V35.88H4.18v6.36ZM20.14,62.4H13.79V60.6h6.36Zm1.2-4.2H6.59V2.4h55.8V58.2Zm33.85,2.4V62.4H48.83V60.6Zm0,0"/><path class="cls-1" d="M23.89,36.42l0,0a12.23,12.23,0,0,0,21.15,0l0,0,0,0a12.22,12.22,0,0,0,0-12.18v0l0,0a12.23,12.23,0,0,0-21.16,0h0a12.21,12.21,0,0,0,0,12.2l0,0ZM34.49,26a4.31,4.31,0,0,1,3.74,6.46h0v0A4.31,4.31,0,1,1,34.49,26Zm9.83,4.31a9.78,9.78,0,0,1-.78,3.84l-2.73-1.58a6.71,6.71,0,0,0,0-4.53l2.73-1.57a9.78,9.78,0,0,1,.78,3.84ZM28.16,32.56l-2.73,1.58a9.83,9.83,0,0,1,0-7.68L28.16,28a6.69,6.69,0,0,0,0,4.53Zm-1.52,3.65,2.73-1.58a6.71,6.71,0,0,0,3.92,2.27v3.15a9.83,9.83,0,0,1-6.65-3.84Zm9,3.84V36.91a6.71,6.71,0,0,0,3.92-2.26l2.73,1.57a9.83,9.83,0,0,1-6.64,3.84Zm6.65-15.67L39.61,26a6.72,6.72,0,0,0-3.92-2.27V20.54a9.84,9.84,0,0,1,6.65,3.84Zm-9-3.84v3.15A6.71,6.71,0,0,0,29.37,26l-2.73-1.57a9.83,9.83,0,0,1,6.65-3.84Zm0,0"/></g></g></svg>