<svg xmlns="http://www.w3.org/2000/svg" viewBox="0 0 17 17"><defs><style>.cls-1{fill:#624a2d;fill-rule:evenodd;}</style></defs><title>Ativo 4</title><g id="Camada_2" data-name="Camada 2"><g id="Camada_1-2" data-name="Camada 1"><path class="cls-1" d="M5.13,6.4A2.68,2.68,0,1,0,7.82,9.09,2.69,2.69,0,0,0,5.13,6.4Zm0,4.31A1.66,1.66,0,1,1,6.76,9,1.67,1.67,0,0,1,5.18,10.71Z"/><path class="cls-1" d="M11.67,5.71a7.61,7.61,0,0,0-3-.62,8.3,8.3,0,0,0-3.41.61A3.43,3.43,0,0,1,8.49,8.63a3.41,3.41,0,0,1,3.17-2.91Z"/><path class="cls-1" d="M5.08,8A1.09,1.09,0,1,0,6.18,9,1.09,1.09,0,0,0,5.08,8Zm0,1.64a.56.56,0,1,1,0-1.11.56.56,0,1,1,0,1.11Z"/><path class="cls-1" d="M11.84,8a1.09,1.09,0,1,0,1.08,1.09A1.09,1.09,0,0,0,11.84,8Zm0,1.64a.55.55,0,1,1,.55-.55A.55.55,0,0,1,11.84,9.6Z"/><path class="cls-1" d="M8.5,0A8.5,8.5,0,1,0,17,8.5,8.5,8.5,0,0,0,8.5,0Zm5.13,11.95a3.32,3.32,0,0,1-1.79.51,3.15,3.15,0,0,1-.8-.1,3.37,3.37,0,0,1-1.65-1l-.18-.2-.72,1.07L7.77,11.2h0a3.33,3.33,0,0,1-2.09,1.18,3.27,3.27,0,0,1-1.39-.08A3.38,3.38,0,0,1,1.81,9.59a3.27,3.27,0,0,1,.06-1.33,3.4,3.4,0,0,1,.52-1.14.13.13,0,0,0,0-.1,3.74,3.74,0,0,0-.47-1l-.17-.23v0H3.83l.09,0A7.26,7.26,0,0,1,5.43,5a8.11,8.11,0,0,1,1.17-.32,9.31,9.31,0,0,1,1.17-.15,9.89,9.89,0,0,1,2.23.1,7.17,7.17,0,0,1,1.11.26,7.64,7.64,0,0,1,1.8.82.27.27,0,0,0,.14,0h2.14v0l-.09.14A4,4,0,0,0,14.57,7a.13.13,0,0,0,0,.12,3.37,3.37,0,0,1-1,4.82Z"/><path class="cls-1" d="M11.79,6.41a2.68,2.68,0,1,0,2.74,2.68A2.68,2.68,0,0,0,11.79,6.41Zm.12,4.3A1.66,1.66,0,1,1,13.5,9,1.67,1.67,0,0,1,11.91,10.71Z"/></g></g></svg>