<svg xmlns="http://www.w3.org/2000/svg" viewBox="0 0 69.34 69.92"><defs><style>.cls-1{fill:#6e5334;}</style></defs><title>Ativo 12</title><g id="Camada_2" data-name="Camada 2"><g id="Camada_1-2" data-name="Camada 1"><path class="cls-1" d="M65.23,11.41H43.41a8.78,8.78,0,0,0-1.07-3L60.56,2.67A1.37,1.37,0,1,0,59.74.06l-19.27,6a8.81,8.81,0,0,0-11.59,0L9.6.06a1.37,1.37,0,1,0-.82,2.61L27,8.38a8.76,8.76,0,0,0-1.07,3H4.11A4.12,4.12,0,0,0,0,15.52V61.8a4.12,4.12,0,0,0,4.11,4.12h.66v2.64a1.37,1.37,0,1,0,2.73,0V65.91H61.83v2.64a1.37,1.37,0,0,0,2.73,0V65.91h.66a4.12,4.12,0,0,0,4.11-4.12V15.52a4.12,4.12,0,0,0-4.11-4.11ZM34.67,6.66a6.11,6.11,0,0,1,6,4.74H28.72a6.12,6.12,0,0,1,6-4.74ZM66.61,61.8a1.38,1.38,0,0,1-1.38,1.38H4.11A1.38,1.38,0,0,1,2.73,61.8V15.52a1.38,1.38,0,0,1,1.38-1.38H65.23a1.38,1.38,0,0,1,1.38,1.38Zm0,0"/><path class="cls-1" d="M63,18.9a1.37,1.37,0,0,0-1.23-1.13,323.66,323.66,0,0,0-54.12,0A1.37,1.37,0,0,0,6.38,18.9a113.09,113.09,0,0,0,0,38.24,1.37,1.37,0,0,0,1.23,1.13c9,.75,18,1.13,27.06,1.13S52.75,59,61.73,58.27A1.37,1.37,0,0,0,63,57.14,113,113,0,0,0,63,18.9ZM60.44,55.63a321.15,321.15,0,0,1-51.54,0,110.29,110.29,0,0,1,0-35.23,320.92,320.92,0,0,1,51.54,0,110.29,110.29,0,0,1,0,35.23Zm0,0"/><path class="cls-1" d="M58.25,30.75A1.37,1.37,0,0,0,57,32.19a105.83,105.83,0,0,1-.19,14.45A1.37,1.37,0,0,0,58,48.12h.11a1.37,1.37,0,0,0,1.36-1.26A108.41,108.41,0,0,0,59.69,32a1.37,1.37,0,0,0-1.44-1.29Zm0,0"/><path class="cls-1" d="M58,29.1h.13a1.37,1.37,0,0,0,1.23-1.49c-.14-1.4-.3-2.82-.49-4.22a1.37,1.37,0,1,0-2.71.37c.19,1.37.35,2.75.48,4.12A1.37,1.37,0,0,0,58,29.1Zm0,0"/><path class="cls-1" d="M64.91,59.4a1.37,1.37,0,1,0,.53,1.6,1.38,1.38,0,0,0-.53-1.6Zm0,0"/></g></g></svg>