<svg xmlns="http://www.w3.org/2000/svg" viewBox="0 0 94.92 74.66"><defs><style>.cls-1{fill:#6e5334;stroke:#fefae7;stroke-miterlimit:10;stroke-width:7.09px;fill-rule:evenodd;}</style></defs><title>Ativo 2</title><g id="Camada_2" data-name="Camada 2"><g id="Camada_1-2" data-name="Camada 1"><path class="cls-1" d="M48.3,14.33c-14,.2-25.42,4.59-35.08,13.5-1.87,1.72-3.9,2.5-6.39,1.5-3.15-1.26-4.39-5.56-2.16-8.12a37.55,37.55,0,0,1,4.88-4.49,59.74,59.74,0,0,1,25.9-12A60.71,60.71,0,0,1,55.21,4,59.77,59.77,0,0,1,82.7,14.77a83.6,83.6,0,0,1,7,5.73,5.26,5.26,0,0,1,1.26,6.09,5.42,5.42,0,0,1-5.44,3.18,6,6,0,0,1-3.66-1.84,49.61,49.61,0,0,0-22-12,42.36,42.36,0,0,0-5.07-1C52.3,14.58,49.87,14.46,48.3,14.33Z"/><path class="cls-1" d="M46.6,21.46c12.6.2,22.66,4.34,31.1,12.43a5.41,5.41,0,0,1,.76,7.05,5.29,5.29,0,0,1-6.52,1.83,7.37,7.37,0,0,1-2.08-1.44A32,32,0,0,0,54.06,33a31.07,31.07,0,0,0-22.71,3.69,53.32,53.32,0,0,0-6.59,5,5.55,5.55,0,0,1-7.23.38,5.3,5.3,0,0,1-.88-7.46,32.7,32.7,0,0,1,7.16-6A42.19,42.19,0,0,1,40.62,22C42.89,21.69,45.21,21.59,46.6,21.46Z"/><path class="cls-1" d="M47.54,39.44a25.07,25.07,0,0,1,18.37,8.08,5.4,5.4,0,0,1-3.56,9.2,5.68,5.68,0,0,1-4.51-2A13.85,13.85,0,0,0,50,50.51,14.26,14.26,0,0,0,37.47,54.3a9.67,9.67,0,0,1-2.93,2.06,5.19,5.19,0,0,1-6.26-2.18,5.44,5.44,0,0,1,.95-6.9A25.11,25.11,0,0,1,47.54,39.44Z"/><path class="cls-1" d="M47.43,58.07a6.52,6.52,0,1,1,.07,13,6.46,6.46,0,0,1-6.56-6.53A6.53,6.53,0,0,1,47.43,58.07Z"/></g></g></svg>