<svg xmlns="http://www.w3.org/2000/svg" viewBox="0 0 15.77 15.77"><defs><style>.cls-1{fill:#624a2d;}</style></defs><title>Ativo 2</title><g id="Camada_2" data-name="Camada 2"><g id="Camada_1-2" data-name="Camada 1"><path class="cls-1" d="M13.78,13.11a7.86,7.86,0,0,0-.15-10.62h0A7.87,7.87,0,0,0,8.16,0H7.61A7.87,7.87,0,0,0,2.14,2.49h0A7.87,7.87,0,0,0,2,13.11H2l0,0a7.87,7.87,0,0,0,5.6,2.63h.55a7.87,7.87,0,0,0,5.61-2.63h0ZM.55,8.16H3.81a10,10,0,0,0,.66,3.32A10,10,0,0,0,2.26,12.6,7.3,7.3,0,0,1,.55,8.16ZM2.41,3A10.09,10.09,0,0,0,4.56,4.05a10,10,0,0,0-.75,3.56H.55A7.3,7.3,0,0,1,2.41,3Zm12.8,4.61H12a10,10,0,0,0-.75-3.56A10.09,10.09,0,0,0,13.35,3a7.3,7.3,0,0,1,1.86,4.61ZM7.61,4.07a9.47,9.47,0,0,1-2.3-.35,9.53,9.53,0,0,1,2.3-3Zm0,.54v3H4.36a9.44,9.44,0,0,1,.72-3.39,10,10,0,0,0,2.53.39Zm.54,0a10,10,0,0,0,2.53-.39,9.48,9.48,0,0,1,.73,3.39H8.16Zm0-.54V.72a9.51,9.51,0,0,1,2.3,3,9.49,9.49,0,0,1-2.3.35ZM11,3.55A10.07,10.07,0,0,0,8.84.61,7.31,7.31,0,0,1,13,2.6a9.49,9.49,0,0,1-2,1Zm-6.2,0a9.43,9.43,0,0,1-2-1,7.31,7.31,0,0,1,4.13-2A10,10,0,0,0,4.78,3.55Zm-.42,4.6H7.61v2.73A10,10,0,0,0,5,11.3a9.47,9.47,0,0,1-.63-3.15Zm3.25,3.27V15A9.51,9.51,0,0,1,5.2,11.81a9.52,9.52,0,0,1,2.42-.38ZM8.16,15V11.43a9.51,9.51,0,0,1,2.41.38A9.47,9.47,0,0,1,8.16,15Zm0-4.16V8.16h3.26a9.46,9.46,0,0,1-.63,3.15,10,10,0,0,0-2.63-.42ZM12,8.16h3.26A7.3,7.3,0,0,1,13.5,12.6a10.05,10.05,0,0,0-2.2-1.12A10.07,10.07,0,0,0,12,8.16ZM2.63,13a9.43,9.43,0,0,1,2-1,10,10,0,0,0,2.25,3.18A7.32,7.32,0,0,1,2.63,13Zm6.21,2.15A10,10,0,0,0,11.09,12a9.5,9.5,0,0,1,2,1,7.33,7.33,0,0,1-4.29,2.15Zm0,0"/></g></g></svg>